<svg width="29" height="25" viewBox="0 0 29 25" fill="none" xmlns="http://www.w3.org/2000/svg">
<path d="M20.9499 1.5C21.7444 1.49941 22.5309 1.65738 23.2635 1.96466C23.9962 2.27195 24.6601 2.72236 25.2164 3.28952C26.3587 4.4494 26.999 6.01204 26.999 7.64C26.999 9.26815 26.3585 10.831 25.216 11.9909L25.2155 11.9913L14.8555 22.4813L14.4998 22.8416L14.144 22.4813L3.78402 11.9913L3.78357 11.9909C2.64101 10.831 2.00056 9.26815 2.00056 7.64C2.00056 6.01186 2.64101 4.44905 3.78357 3.28913C4.34009 2.72254 5.0039 2.27248 5.73625 1.96523C6.46884 1.65787 7.25532 1.49957 8.04978 1.49957C8.84423 1.49957 9.63071 1.65787 10.3633 1.96523C11.0959 2.27258 11.7599 2.72283 12.3165 3.28968L12.3174 3.2906L14.5005 5.52519L16.6702 3.31258C16.6707 3.31208 16.6712 3.31159 16.6716 3.31109C17.2263 2.73743 17.8909 2.28139 18.6257 1.97022C19.3609 1.65886 20.1514 1.49894 20.9499 1.5ZM20.9499 1.5C20.9501 1.5 20.9503 1.5 20.9505 1.5L20.9498 2L20.9494 1.5C20.9495 1.5 20.9497 1.5 20.9499 1.5ZM20.9496 0.500003L20.9494 0.500003C20.0215 0.499216 19.1029 0.683681 18.2473 1.04258C17.3917 1.40148 16.6164 1.92759 15.9668 2.59007L15.9649 2.59197L15.9649 2.59197L14.8549 3.71197L14.4998 4.0703L14.1446 3.71197L13.0346 2.59197L13.0333 2.59061C12.3828 1.9292 11.6071 1.4039 10.7515 1.04533C9.8959 0.686765 8.97748 0.502097 8.04978 0.502097C7.12207 0.502097 6.20365 0.686765 5.34804 1.04533C4.49246 1.4039 3.7168 1.92918 3.06629 2.59057L20.9496 0.500003ZM20.9496 0.500003C21.8775 0.500258 22.796 0.685233 23.6516 1.04414C24.5072 1.40305 25.2828 1.92871 25.9332 2.59047C27.2594 3.94059 28.0025 5.75746 28.0025 7.65C28.0025 9.54225 27.2596 11.3589 25.9338 12.7089C25.9335 12.7091 25.9333 12.7094 25.9331 12.7096L14.4998 24.2884M20.9496 0.500003L14.4998 24.2884M14.4998 24.2884L3.06647 12.7096C3.06631 12.7095 3.06615 12.7093 3.066 12.7091C1.74002 11.3591 0.99707 9.54236 0.99707 7.65C0.99707 5.75753 1.74011 3.94071 3.06625 2.59061L14.4998 24.2884Z" fill="#BDBDBD" stroke="white"/>
</svg>
